<?xml version="1.0" encoding="utf-8" standalone="no"?>
<!DOCTYPE svg PUBLIC "-//W3C//DTD SVG 1.1//EN"
  "http://www.w3.org/Graphics/SVG/1.1/DTD/svg11.dtd">
<svg xmlns:xlink="http://www.w3.org/1999/xlink" width="475.2pt" height="375.118125pt" viewBox="0 0 475.2 375.118125" xmlns="http://www.w3.org/2000/svg" version="1.1">
 <metadata>
  <rdf:RDF xmlns:dc="http://purl.org/dc/elements/1.1/" xmlns:cc="http://creativecommons.org/ns#" xmlns:rdf="http://www.w3.org/1999/02/22-rdf-syntax-ns#">
   <cc:Work>
    <dc:type rdf:resource="http://purl.org/dc/dcmitype/StillImage"/>
    <dc:date>2023-03-29T16:47:30.456997</dc:date>
    <dc:format>image/svg+xml</dc:format>
    <dc:creator>
     <cc:Agent>
      <dc:title>Matplotlib v3.7.1, https://matplotlib.org/</dc:title>
     </cc:Agent>
    </dc:creator>
   </cc:Work>
  </rdf:RDF>
 </metadata>
 <defs>
  <style type="text/css">*{stroke-linejoin: round; stroke-linecap: butt}</style>
 </defs>
 <g id="figure_1">
  <g id="patch_1">
   <path d="M 0 375.118125 
L 475.2 375.118125 
L 475.2 -0 
L 0 -0 
z
" style="fill: #ffffff"/>
  </g>
  <g id="axes_1">
   <g id="LineCollection_1">
    <path d="M 140.055315 182.648314 
L 43.361989 126.133435 
" clip-path="url(#p16fe2a0db4)" style="fill: none; stroke: #000000"/>
    <path d="M 140.055315 182.648314 
L 232.693405 159.744363 
" clip-path="url(#p16fe2a0db4)" style="fill: none; stroke: #000000"/>
    <path d="M 140.055315 182.648314 
L 253.67572 221.291633 
" clip-path="url(#p16fe2a0db4)" style="fill: none; stroke: #000000"/>
    <path d="M 140.055315 182.648314 
L 244.863535 192.786032 
" clip-path="url(#p16fe2a0db4)" style="fill: none; stroke: #000000"/>
    <path d="M 140.055315 182.648314 
L 146.976756 136.315061 
" clip-path="url(#p16fe2a0db4)" style="fill: none; stroke: #000000"/>
    <path d="M 337.122323 197.619575 
L 232.693405 159.744363 
" clip-path="url(#p16fe2a0db4)" style="fill: none; stroke: #000000"/>
    <path d="M 337.122323 197.619575 
L 244.863535 192.786032 
" clip-path="url(#p16fe2a0db4)" style="fill: none; stroke: #000000"/>
    <path d="M 337.122323 197.619575 
L 253.67572 221.291633 
" clip-path="url(#p16fe2a0db4)" style="fill: none; stroke: #000000"/>
    <path d="M 337.122323 197.619575 
L 341.867719 160.094982 
" clip-path="url(#p16fe2a0db4)" style="fill: none; stroke: #000000"/>
    <path d="M 347.692675 318.759124 
L 253.67572 221.291633 
" clip-path="url(#p16fe2a0db4)" style="fill: none; stroke: #000000"/>
    <path d="M 232.693405 159.744363 
L 146.976756 136.315061 
" clip-path="url(#p16fe2a0db4)" style="fill: none; stroke: #000000"/>
    <path d="M 232.693405 159.744363 
L 269.827664 248.863373 
" clip-path="url(#p16fe2a0db4)" style="fill: none; stroke: #000000"/>
    <path d="M 232.693405 159.744363 
L 253.67572 221.291633 
" clip-path="url(#p16fe2a0db4)" style="fill: none; stroke: #000000"/>
    <path d="M 43.361989 126.133435 
L 146.976756 136.315061 
" clip-path="url(#p16fe2a0db4)" style="fill: none; stroke: #000000"/>
    <path d="M 341.867719 160.094982 
L 244.863535 192.786032 
" clip-path="url(#p16fe2a0db4)" style="fill: none; stroke: #000000"/>
    <path d="M 341.867719 160.094982 
L 269.827664 248.863373 
" clip-path="url(#p16fe2a0db4)" style="fill: none; stroke: #000000"/>
    <path d="M 253.67572 221.291633 
L 146.976756 136.315061 
" clip-path="url(#p16fe2a0db4)" style="fill: none; stroke: #000000"/>
    <path d="M 253.67572 221.291633 
L 269.827664 248.863373 
" clip-path="url(#p16fe2a0db4)" style="fill: none; stroke: #000000"/>
    <path d="M 253.67572 221.291633 
L 244.863535 192.786032 
" clip-path="url(#p16fe2a0db4)" style="fill: none; stroke: #000000"/>
    <path d="M 244.863535 192.786032 
L 269.827664 248.863373 
" clip-path="url(#p16fe2a0db4)" style="fill: none; stroke: #000000"/>
   </g>
   <g id="LineCollection_2">
    <path d="M 303.448291 232.986043 
L 428.265431 274.396496 
" clip-path="url(#p16fe2a0db4)" style="fill: none; stroke: #808080"/>
    <path d="M 303.448291 232.986043 
L 269.92564 167.813035 
" clip-path="url(#p16fe2a0db4)" style="fill: none; stroke: #808080"/>
    <path d="M 303.448291 232.986043 
L 214.360034 217.949896 
" clip-path="url(#p16fe2a0db4)" style="fill: none; stroke: #808080"/>
    <path d="M 303.448291 232.986043 
L 190.890947 157.852565 
" clip-path="url(#p16fe2a0db4)" style="fill: none; stroke: #808080"/>
    <path d="M 303.448291 232.986043 
L 360.705952 219.712499 
" clip-path="url(#p16fe2a0db4)" style="fill: none; stroke: #808080"/>
    <path d="M 129.649272 160.86004 
L 269.92564 167.813035 
" clip-path="url(#p16fe2a0db4)" style="fill: none; stroke: #808080"/>
    <path d="M 129.649272 160.86004 
L 190.890947 157.852565 
" clip-path="url(#p16fe2a0db4)" style="fill: none; stroke: #808080"/>
    <path d="M 129.649272 160.86004 
L 214.360034 217.949896 
" clip-path="url(#p16fe2a0db4)" style="fill: none; stroke: #808080"/>
    <path d="M 129.649272 160.86004 
L 114.971345 85.696484 
" clip-path="url(#p16fe2a0db4)" style="fill: none; stroke: #808080"/>
    <path d="M 133.655034 319.213145 
L 214.360034 217.949896 
" clip-path="url(#p16fe2a0db4)" style="fill: none; stroke: #808080"/>
    <path d="M 269.92564 167.813035 
L 360.705952 219.712499 
" clip-path="url(#p16fe2a0db4)" style="fill: none; stroke: #808080"/>
    <path d="M 269.92564 167.813035 
L 212.265154 107.77569 
" clip-path="url(#p16fe2a0db4)" style="fill: none; stroke: #808080"/>
    <path d="M 269.92564 167.813035 
L 214.360034 217.949896 
" clip-path="url(#p16fe2a0db4)" style="fill: none; stroke: #808080"/>
    <path d="M 428.265431 274.396496 
L 360.705952 219.712499 
" clip-path="url(#p16fe2a0db4)" style="fill: none; stroke: #808080"/>
    <path d="M 114.971345 85.696484 
L 190.890947 157.852565 
" clip-path="url(#p16fe2a0db4)" style="fill: none; stroke: #808080"/>
    <path d="M 114.971345 85.696484 
L 212.265154 107.77569 
" clip-path="url(#p16fe2a0db4)" style="fill: none; stroke: #808080"/>
    <path d="M 214.360034 217.949896 
L 360.705952 219.712499 
" clip-path="url(#p16fe2a0db4)" style="fill: none; stroke: #808080"/>
    <path d="M 214.360034 217.949896 
L 212.265154 107.77569 
" clip-path="url(#p16fe2a0db4)" style="fill: none; stroke: #808080"/>
    <path d="M 214.360034 217.949896 
L 190.890947 157.852565 
" clip-path="url(#p16fe2a0db4)" style="fill: none; stroke: #808080"/>
    <path d="M 190.890947 157.852565 
L 212.265154 107.77569 
" clip-path="url(#p16fe2a0db4)" style="fill: none; stroke: #808080"/>
   </g>
   <g id="LineCollection_3">
    <path d="M 303.448291 232.986043 
L 428.265431 274.396496 
" clip-path="url(#p16fe2a0db4)" style="fill: none; stroke: #ff0000"/>
    <path d="M 303.448291 232.986043 
L 269.92564 167.813035 
" clip-path="url(#p16fe2a0db4)" style="fill: none; stroke: #ff0000"/>
    <path d="M 303.448291 232.986043 
L 214.360034 217.949896 
" clip-path="url(#p16fe2a0db4)" style="fill: none; stroke: #ff0000"/>
    <path d="M 303.448291 232.986043 
L 190.890947 157.852565 
" clip-path="url(#p16fe2a0db4)" style="fill: none; stroke: #ff0000"/>
    <path d="M 303.448291 232.986043 
L 360.705952 219.712499 
" clip-path="url(#p16fe2a0db4)" style="fill: none; stroke: #ff0000"/>
    <path d="M 129.649272 160.86004 
L 269.92564 167.813035 
" clip-path="url(#p16fe2a0db4)" style="fill: none; stroke: #ff0000"/>
    <path d="M 129.649272 160.86004 
L 190.890947 157.852565 
" clip-path="url(#p16fe2a0db4)" style="fill: none; stroke: #ff0000"/>
    <path d="M 129.649272 160.86004 
L 214.360034 217.949896 
" clip-path="url(#p16fe2a0db4)" style="fill: none; stroke: #ff0000"/>
    <path d="M 129.649272 160.86004 
L 114.971345 85.696484 
" clip-path="url(#p16fe2a0db4)" style="fill: none; stroke: #ff0000"/>
    <path d="M 133.655034 319.213145 
L 214.360034 217.949896 
" clip-path="url(#p16fe2a0db4)" style="fill: none; stroke: #ff0000"/>
    <path d="M 269.92564 167.813035 
L 360.705952 219.712499 
" clip-path="url(#p16fe2a0db4)" style="fill: none; stroke: #ff0000"/>
    <path d="M 269.92564 167.813035 
L 212.265154 107.77569 
" clip-path="url(#p16fe2a0db4)" style="fill: none; stroke: #ff0000"/>
    <path d="M 269.92564 167.813035 
L 214.360034 217.949896 
" clip-path="url(#p16fe2a0db4)" style="fill: none; stroke: #ff0000"/>
    <path d="M 428.265431 274.396496 
L 360.705952 219.712499 
" clip-path="url(#p16fe2a0db4)" style="fill: none; stroke: #ff0000"/>
    <path d="M 114.971345 85.696484 
L 190.890947 157.852565 
" clip-path="url(#p16fe2a0db4)" style="fill: none; stroke: #ff0000"/>
    <path d="M 114.971345 85.696484 
L 212.265154 107.77569 
" clip-path="url(#p16fe2a0db4)" style="fill: none; stroke: #ff0000"/>
    <path d="M 214.360034 217.949896 
L 360.705952 219.712499 
" clip-path="url(#p16fe2a0db4)" style="fill: none; stroke: #ff0000"/>
    <path d="M 214.360034 217.949896 
L 212.265154 107.77569 
" clip-path="url(#p16fe2a0db4)" style="fill: none; stroke: #ff0000"/>
    <path d="M 214.360034 217.949896 
L 190.890947 157.852565 
" clip-path="url(#p16fe2a0db4)" style="fill: none; stroke: #ff0000"/>
    <path d="M 190.890947 157.852565 
L 212.265154 107.77569 
" clip-path="url(#p16fe2a0db4)" style="fill: none; stroke: #ff0000"/>
   </g>
   <g id="LineCollection_4">
    <path d="M 303.448291 232.986043 
L 428.265431 274.396496 
" clip-path="url(#p16fe2a0db4)" style="fill: none; stroke: #008000"/>
    <path d="M 303.448291 232.986043 
L 269.92564 167.813035 
" clip-path="url(#p16fe2a0db4)" style="fill: none; stroke: #008000"/>
    <path d="M 303.448291 232.986043 
L 214.360034 217.949896 
" clip-path="url(#p16fe2a0db4)" style="fill: none; stroke: #008000"/>
    <path d="M 303.448291 232.986043 
L 190.890947 157.852565 
" clip-path="url(#p16fe2a0db4)" style="fill: none; stroke: #008000"/>
    <path d="M 303.448291 232.986043 
L 360.705952 219.712499 
" clip-path="url(#p16fe2a0db4)" style="fill: none; stroke: #008000"/>
    <path d="M 129.649272 160.86004 
L 269.92564 167.813035 
" clip-path="url(#p16fe2a0db4)" style="fill: none; stroke: #008000"/>
    <path d="M 129.649272 160.86004 
L 190.890947 157.852565 
" clip-path="url(#p16fe2a0db4)" style="fill: none; stroke: #008000"/>
    <path d="M 129.649272 160.86004 
L 214.360034 217.949896 
" clip-path="url(#p16fe2a0db4)" style="fill: none; stroke: #008000"/>
    <path d="M 129.649272 160.86004 
L 114.971345 85.696484 
" clip-path="url(#p16fe2a0db4)" style="fill: none; stroke: #008000"/>
    <path d="M 133.655034 319.213145 
L 214.360034 217.949896 
" clip-path="url(#p16fe2a0db4)" style="fill: none; stroke: #008000"/>
    <path d="M 269.92564 167.813035 
L 360.705952 219.712499 
" clip-path="url(#p16fe2a0db4)" style="fill: none; stroke: #008000"/>
    <path d="M 269.92564 167.813035 
L 212.265154 107.77569 
" clip-path="url(#p16fe2a0db4)" style="fill: none; stroke: #008000"/>
    <path d="M 269.92564 167.813035 
L 214.360034 217.949896 
" clip-path="url(#p16fe2a0db4)" style="fill: none; stroke: #008000"/>
    <path d="M 428.265431 274.396496 
L 360.705952 219.712499 
" clip-path="url(#p16fe2a0db4)" style="fill: none; stroke: #008000"/>
    <path d="M 114.971345 85.696484 
L 190.890947 157.852565 
" clip-path="url(#p16fe2a0db4)" style="fill: none; stroke: #008000"/>
    <path d="M 114.971345 85.696484 
L 212.265154 107.77569 
" clip-path="url(#p16fe2a0db4)" style="fill: none; stroke: #008000"/>
    <path d="M 214.360034 217.949896 
L 360.705952 219.712499 
" clip-path="url(#p16fe2a0db4)" style="fill: none; stroke: #008000"/>
    <path d="M 214.360034 217.949896 
L 212.265154 107.77569 
" clip-path="url(#p16fe2a0db4)" style="fill: none; stroke: #008000"/>
    <path d="M 214.360034 217.949896 
L 190.890947 157.852565 
" clip-path="url(#p16fe2a0db4)" style="fill: none; stroke: #008000"/>
    <path d="M 190.890947 157.852565 
L 212.265154 107.77569 
" clip-path="url(#p16fe2a0db4)" style="fill: none; stroke: #008000"/>
   </g>
   <g id="LineCollection_5">
    <path d="M 239.931057 125.368242 
L 303.620919 49.167556 
" clip-path="url(#p16fe2a0db4)" style="fill: none; stroke: #808080"/>
    <path d="M 239.931057 125.368242 
L 231.91665 183.592532 
" clip-path="url(#p16fe2a0db4)" style="fill: none; stroke: #808080"/>
    <path d="M 239.931057 125.368242 
L 272.462628 213.557063 
" clip-path="url(#p16fe2a0db4)" style="fill: none; stroke: #808080"/>
    <path d="M 239.931057 125.368242 
L 158.316662 198.500744 
" clip-path="url(#p16fe2a0db4)" style="fill: none; stroke: #808080"/>
    <path d="M 239.931057 125.368242 
L 311.00008 127.336542 
" clip-path="url(#p16fe2a0db4)" style="fill: none; stroke: #808080"/>
    <path d="M 199.627842 264.635691 
L 231.91665 183.592532 
" clip-path="url(#p16fe2a0db4)" style="fill: none; stroke: #808080"/>
    <path d="M 199.627842 264.635691 
L 158.316662 198.500744 
" clip-path="url(#p16fe2a0db4)" style="fill: none; stroke: #808080"/>
    <path d="M 199.627842 264.635691 
L 272.462628 213.557063 
" clip-path="url(#p16fe2a0db4)" style="fill: none; stroke: #808080"/>
    <path d="M 199.627842 264.635691 
L 92.80071 271.974366 
" clip-path="url(#p16fe2a0db4)" style="fill: none; stroke: #808080"/>
    <path d="M 393.417943 271.690018 
L 272.462628 213.557063 
" clip-path="url(#p16fe2a0db4)" style="fill: none; stroke: #808080"/>
    <path d="M 231.91665 183.592532 
L 311.00008 127.336542 
" clip-path="url(#p16fe2a0db4)" style="fill: none; stroke: #808080"/>
    <path d="M 231.91665 183.592532 
L 155.042608 238.433138 
" clip-path="url(#p16fe2a0db4)" style="fill: none; stroke: #808080"/>
    <path d="M 231.91665 183.592532 
L 272.462628 213.557063 
" clip-path="url(#p16fe2a0db4)" style="fill: none; stroke: #808080"/>
    <path d="M 303.620919 49.167556 
L 311.00008 127.336542 
" clip-path="url(#p16fe2a0db4)" style="fill: none; stroke: #808080"/>
    <path d="M 92.80071 271.974366 
L 158.316662 198.500744 
" clip-path="url(#p16fe2a0db4)" style="fill: none; stroke: #808080"/>
    <path d="M 92.80071 271.974366 
L 155.042608 238.433138 
" clip-path="url(#p16fe2a0db4)" style="fill: none; stroke: #808080"/>
    <path d="M 272.462628 213.557063 
L 311.00008 127.336542 
" clip-path="url(#p16fe2a0db4)" style="fill: none; stroke: #808080"/>
    <path d="M 272.462628 213.557063 
L 155.042608 238.433138 
" clip-path="url(#p16fe2a0db4)" style="fill: none; stroke: #808080"/>
    <path d="M 272.462628 213.557063 
L 158.316662 198.500744 
" clip-path="url(#p16fe2a0db4)" style="fill: none; stroke: #808080"/>
    <path d="M 158.316662 198.500744 
L 155.042608 238.433138 
" clip-path="url(#p16fe2a0db4)" style="fill: none; stroke: #808080"/>
   </g>
   <g id="LineCollection_6">
    <path d="M 239.931057 125.368242 
L 303.620919 49.167556 
" clip-path="url(#p16fe2a0db4)" style="fill: none; stroke: #ff0000"/>
    <path d="M 239.931057 125.368242 
L 231.91665 183.592532 
" clip-path="url(#p16fe2a0db4)" style="fill: none; stroke: #ff0000"/>
    <path d="M 239.931057 125.368242 
L 272.462628 213.557063 
" clip-path="url(#p16fe2a0db4)" style="fill: none; stroke: #ff0000"/>
    <path d="M 239.931057 125.368242 
L 158.316662 198.500744 
" clip-path="url(#p16fe2a0db4)" style="fill: none; stroke: #ff0000"/>
    <path d="M 239.931057 125.368242 
L 311.00008 127.336542 
" clip-path="url(#p16fe2a0db4)" style="fill: none; stroke: #ff0000"/>
    <path d="M 199.627842 264.635691 
L 231.91665 183.592532 
" clip-path="url(#p16fe2a0db4)" style="fill: none; stroke: #ff0000"/>
    <path d="M 199.627842 264.635691 
L 158.316662 198.500744 
" clip-path="url(#p16fe2a0db4)" style="fill: none; stroke: #ff0000"/>
    <path d="M 199.627842 264.635691 
L 272.462628 213.557063 
" clip-path="url(#p16fe2a0db4)" style="fill: none; stroke: #ff0000"/>
    <path d="M 199.627842 264.635691 
L 92.80071 271.974366 
" clip-path="url(#p16fe2a0db4)" style="fill: none; stroke: #ff0000"/>
    <path d="M 393.417943 271.690018 
L 272.462628 213.557063 
" clip-path="url(#p16fe2a0db4)" style="fill: none; stroke: #ff0000"/>
    <path d="M 231.91665 183.592532 
L 311.00008 127.336542 
" clip-path="url(#p16fe2a0db4)" style="fill: none; stroke: #ff0000"/>
    <path d="M 231.91665 183.592532 
L 155.042608 238.433138 
" clip-path="url(#p16fe2a0db4)" style="fill: none; stroke: #ff0000"/>
    <path d="M 231.91665 183.592532 
L 272.462628 213.557063 
" clip-path="url(#p16fe2a0db4)" style="fill: none; stroke: #ff0000"/>
    <path d="M 303.620919 49.167556 
L 311.00008 127.336542 
" clip-path="url(#p16fe2a0db4)" style="fill: none; stroke: #ff0000"/>
    <path d="M 92.80071 271.974366 
L 158.316662 198.500744 
" clip-path="url(#p16fe2a0db4)" style="fill: none; stroke: #ff0000"/>
    <path d="M 92.80071 271.974366 
L 155.042608 238.433138 
" clip-path="url(#p16fe2a0db4)" style="fill: none; stroke: #ff0000"/>
    <path d="M 272.462628 213.557063 
L 311.00008 127.336542 
" clip-path="url(#p16fe2a0db4)" style="fill: none; stroke: #ff0000"/>
    <path d="M 272.462628 213.557063 
L 155.042608 238.433138 
" clip-path="url(#p16fe2a0db4)" style="fill: none; stroke: #ff0000"/>
    <path d="M 272.462628 213.557063 
L 158.316662 198.500744 
" clip-path="url(#p16fe2a0db4)" style="fill: none; stroke: #ff0000"/>
    <path d="M 158.316662 198.500744 
L 155.042608 238.433138 
" clip-path="url(#p16fe2a0db4)" style="fill: none; stroke: #ff0000"/>
   </g>
   <g id="LineCollection_7">
    <path d="M 239.931057 125.368242 
L 303.620919 49.167556 
" clip-path="url(#p16fe2a0db4)" style="fill: none; stroke: #008000"/>
    <path d="M 239.931057 125.368242 
L 231.91665 183.592532 
" clip-path="url(#p16fe2a0db4)" style="fill: none; stroke: #008000"/>
    <path d="M 239.931057 125.368242 
L 272.462628 213.557063 
" clip-path="url(#p16fe2a0db4)" style="fill: none; stroke: #008000"/>
    <path d="M 239.931057 125.368242 
L 158.316662 198.500744 
" clip-path="url(#p16fe2a0db4)" style="fill: none; stroke: #008000"/>
    <path d="M 239.931057 125.368242 
L 311.00008 127.336542 
" clip-path="url(#p16fe2a0db4)" style="fill: none; stroke: #008000"/>
    <path d="M 199.627842 264.635691 
L 231.91665 183.592532 
" clip-path="url(#p16fe2a0db4)" style="fill: none; stroke: #008000"/>
    <path d="M 199.627842 264.635691 
L 158.316662 198.500744 
" clip-path="url(#p16fe2a0db4)" style="fill: none; stroke: #008000"/>
    <path d="M 199.627842 264.635691 
L 272.462628 213.557063 
" clip-path="url(#p16fe2a0db4)" style="fill: none; stroke: #008000"/>
    <path d="M 199.627842 264.635691 
L 92.80071 271.974366 
" clip-path="url(#p16fe2a0db4)" style="fill: none; stroke: #008000"/>
    <path d="M 393.417943 271.690018 
L 272.462628 213.557063 
" clip-path="url(#p16fe2a0db4)" style="fill: none; stroke: #008000"/>
    <path d="M 231.91665 183.592532 
L 311.00008 127.336542 
" clip-path="url(#p16fe2a0db4)" style="fill: none; stroke: #008000"/>
    <path d="M 231.91665 183.592532 
L 155.042608 238.433138 
" clip-path="url(#p16fe2a0db4)" style="fill: none; stroke: #008000"/>
    <path d="M 231.91665 183.592532 
L 272.462628 213.557063 
" clip-path="url(#p16fe2a0db4)" style="fill: none; stroke: #008000"/>
    <path d="M 303.620919 49.167556 
L 311.00008 127.336542 
" clip-path="url(#p16fe2a0db4)" style="fill: none; stroke: #008000"/>
    <path d="M 92.80071 271.974366 
L 158.316662 198.500744 
" clip-path="url(#p16fe2a0db4)" style="fill: none; stroke: #008000"/>
    <path d="M 92.80071 271.974366 
L 155.042608 238.433138 
" clip-path="url(#p16fe2a0db4)" style="fill: none; stroke: #008000"/>
    <path d="M 272.462628 213.557063 
L 311.00008 127.336542 
" clip-path="url(#p16fe2a0db4)" style="fill: none; stroke: #008000"/>
    <path d="M 272.462628 213.557063 
L 155.042608 238.433138 
" clip-path="url(#p16fe2a0db4)" style="fill: none; stroke: #008000"/>
    <path d="M 272.462628 213.557063 
L 158.316662 198.500744 
" clip-path="url(#p16fe2a0db4)" style="fill: none; stroke: #008000"/>
    <path d="M 158.316662 198.500744 
L 155.042608 238.433138 
" clip-path="url(#p16fe2a0db4)" style="fill: none; stroke: #008000"/>
   </g>
   <g id="LineCollection_8">
    <path d="M 214.724666 266.65259 
L 128.565878 339.683622 
" clip-path="url(#p16fe2a0db4)" style="fill: none; stroke: #808080"/>
    <path d="M 214.724666 266.65259 
L 237.173199 207.037277 
" clip-path="url(#p16fe2a0db4)" style="fill: none; stroke: #808080"/>
    <path d="M 214.724666 266.65259 
L 201.12751 169.069951 
" clip-path="url(#p16fe2a0db4)" style="fill: none; stroke: #808080"/>
    <path d="M 214.724666 266.65259 
L 319.186324 200.992663 
" clip-path="url(#p16fe2a0db4)" style="fill: none; stroke: #808080"/>
    <path d="M 214.724666 266.65259 
L 139.019583 255.400359 
" clip-path="url(#p16fe2a0db4)" style="fill: none; stroke: #808080"/>
    <path d="M 290.704817 125.943248 
L 237.173199 207.037277 
" clip-path="url(#p16fe2a0db4)" style="fill: none; stroke: #808080"/>
    <path d="M 290.704817 125.943248 
L 319.186324 200.992663 
" clip-path="url(#p16fe2a0db4)" style="fill: none; stroke: #808080"/>
    <path d="M 290.704817 125.943248 
L 201.12751 169.069951 
" clip-path="url(#p16fe2a0db4)" style="fill: none; stroke: #808080"/>
    <path d="M 290.704817 125.943248 
L 405.909341 131.774277 
" clip-path="url(#p16fe2a0db4)" style="fill: none; stroke: #808080"/>
    <path d="M 89.025186 89.175385 
L 201.12751 169.069951 
" clip-path="url(#p16fe2a0db4)" style="fill: none; stroke: #808080"/>
    <path d="M 237.173199 207.037277 
L 139.019583 255.400359 
" clip-path="url(#p16fe2a0db4)" style="fill: none; stroke: #808080"/>
    <path d="M 237.173199 207.037277 
L 332.700596 158.526521 
" clip-path="url(#p16fe2a0db4)" style="fill: none; stroke: #808080"/>
    <path d="M 237.173199 207.037277 
L 201.12751 169.069951 
" clip-path="url(#p16fe2a0db4)" style="fill: none; stroke: #808080"/>
    <path d="M 128.565878 339.683622 
L 139.019583 255.400359 
" clip-path="url(#p16fe2a0db4)" style="fill: none; stroke: #808080"/>
    <path d="M 405.909341 131.774277 
L 319.186324 200.992663 
" clip-path="url(#p16fe2a0db4)" style="fill: none; stroke: #808080"/>
    <path d="M 405.909341 131.774277 
L 332.700596 158.526521 
" clip-path="url(#p16fe2a0db4)" style="fill: none; stroke: #808080"/>
    <path d="M 201.12751 169.069951 
L 139.019583 255.400359 
" clip-path="url(#p16fe2a0db4)" style="fill: none; stroke: #808080"/>
    <path d="M 201.12751 169.069951 
L 332.700596 158.526521 
" clip-path="url(#p16fe2a0db4)" style="fill: none; stroke: #808080"/>
    <path d="M 201.12751 169.069951 
L 319.186324 200.992663 
" clip-path="url(#p16fe2a0db4)" style="fill: none; stroke: #808080"/>
    <path d="M 319.186324 200.992663 
L 332.700596 158.526521 
" clip-path="url(#p16fe2a0db4)" style="fill: none; stroke: #808080"/>
   </g>
   <g id="LineCollection_9">
    <path d="M 214.724666 266.65259 
L 128.565878 339.683622 
" clip-path="url(#p16fe2a0db4)" style="fill: none; stroke: #ff0000"/>
    <path d="M 214.724666 266.65259 
L 237.173199 207.037277 
" clip-path="url(#p16fe2a0db4)" style="fill: none; stroke: #ff0000"/>
    <path d="M 214.724666 266.65259 
L 201.12751 169.069951 
" clip-path="url(#p16fe2a0db4)" style="fill: none; stroke: #ff0000"/>
    <path d="M 214.724666 266.65259 
L 319.186324 200.992663 
" clip-path="url(#p16fe2a0db4)" style="fill: none; stroke: #ff0000"/>
    <path d="M 214.724666 266.65259 
L 139.019583 255.400359 
" clip-path="url(#p16fe2a0db4)" style="fill: none; stroke: #ff0000"/>
    <path d="M 290.704817 125.943248 
L 237.173199 207.037277 
" clip-path="url(#p16fe2a0db4)" style="fill: none; stroke: #ff0000"/>
    <path d="M 290.704817 125.943248 
L 319.186324 200.992663 
" clip-path="url(#p16fe2a0db4)" style="fill: none; stroke: #ff0000"/>
    <path d="M 290.704817 125.943248 
L 201.12751 169.069951 
" clip-path="url(#p16fe2a0db4)" style="fill: none; stroke: #ff0000"/>
    <path d="M 290.704817 125.943248 
L 405.909341 131.774277 
" clip-path="url(#p16fe2a0db4)" style="fill: none; stroke: #ff0000"/>
    <path d="M 89.025186 89.175385 
L 201.12751 169.069951 
" clip-path="url(#p16fe2a0db4)" style="fill: none; stroke: #ff0000"/>
    <path d="M 237.173199 207.037277 
L 139.019583 255.400359 
" clip-path="url(#p16fe2a0db4)" style="fill: none; stroke: #ff0000"/>
    <path d="M 237.173199 207.037277 
L 332.700596 158.526521 
" clip-path="url(#p16fe2a0db4)" style="fill: none; stroke: #ff0000"/>
    <path d="M 237.173199 207.037277 
L 201.12751 169.069951 
" clip-path="url(#p16fe2a0db4)" style="fill: none; stroke: #ff0000"/>
    <path d="M 128.565878 339.683622 
L 139.019583 255.400359 
" clip-path="url(#p16fe2a0db4)" style="fill: none; stroke: #ff0000"/>
    <path d="M 405.909341 131.774277 
L 319.186324 200.992663 
" clip-path="url(#p16fe2a0db4)" style="fill: none; stroke: #ff0000"/>
    <path d="M 405.909341 131.774277 
L 332.700596 158.526521 
" clip-path="url(#p16fe2a0db4)" style="fill: none; stroke: #ff0000"/>
    <path d="M 201.12751 169.069951 
L 139.019583 255.400359 
" clip-path="url(#p16fe2a0db4)" style="fill: none; stroke: #ff0000"/>
    <path d="M 201.12751 169.069951 
L 332.700596 158.526521 
" clip-path="url(#p16fe2a0db4)" style="fill: none; stroke: #ff0000"/>
    <path d="M 201.12751 169.069951 
L 319.186324 200.992663 
" clip-path="url(#p16fe2a0db4)" style="fill: none; stroke: #ff0000"/>
    <path d="M 319.186324 200.992663 
L 332.700596 158.526521 
" clip-path="url(#p16fe2a0db4)" style="fill: none; stroke: #ff0000"/>
   </g>
   <g id="LineCollection_10">
    <path d="M 214.724666 266.65259 
L 128.565878 339.683622 
" clip-path="url(#p16fe2a0db4)" style="fill: none; stroke: #008000"/>
    <path d="M 214.724666 266.65259 
L 237.173199 207.037277 
" clip-path="url(#p16fe2a0db4)" style="fill: none; stroke: #008000"/>
    <path d="M 214.724666 266.65259 
L 201.12751 169.069951 
" clip-path="url(#p16fe2a0db4)" style="fill: none; stroke: #008000"/>
    <path d="M 214.724666 266.65259 
L 319.186324 200.992663 
" clip-path="url(#p16fe2a0db4)" style="fill: none; stroke: #008000"/>
    <path d="M 214.724666 266.65259 
L 139.019583 255.400359 
" clip-path="url(#p16fe2a0db4)" style="fill: none; stroke: #008000"/>
    <path d="M 290.704817 125.943248 
L 237.173199 207.037277 
" clip-path="url(#p16fe2a0db4)" style="fill: none; stroke: #008000"/>
    <path d="M 290.704817 125.943248 
L 319.186324 200.992663 
" clip-path="url(#p16fe2a0db4)" style="fill: none; stroke: #008000"/>
    <path d="M 290.704817 125.943248 
L 201.12751 169.069951 
" clip-path="url(#p16fe2a0db4)" style="fill: none; stroke: #008000"/>
    <path d="M 290.704817 125.943248 
L 405.909341 131.774277 
" clip-path="url(#p16fe2a0db4)" style="fill: none; stroke: #008000"/>
    <path d="M 89.025186 89.175385 
L 201.12751 169.069951 
" clip-path="url(#p16fe2a0db4)" style="fill: none; stroke: #008000"/>
    <path d="M 237.173199 207.037277 
L 139.019583 255.400359 
" clip-path="url(#p16fe2a0db4)" style="fill: none; stroke: #008000"/>
    <path d="M 237.173199 207.037277 
L 332.700596 158.526521 
" clip-path="url(#p16fe2a0db4)" style="fill: none; stroke: #008000"/>
    <path d="M 237.173199 207.037277 
L 201.12751 169.069951 
" clip-path="url(#p16fe2a0db4)" style="fill: none; stroke: #008000"/>
    <path d="M 128.565878 339.683622 
L 139.019583 255.400359 
" clip-path="url(#p16fe2a0db4)" style="fill: none; stroke: #008000"/>
    <path d="M 405.909341 131.774277 
L 319.186324 200.992663 
" clip-path="url(#p16fe2a0db4)" style="fill: none; stroke: #008000"/>
    <path d="M 405.909341 131.774277 
L 332.700596 158.526521 
" clip-path="url(#p16fe2a0db4)" style="fill: none; stroke: #008000"/>
    <path d="M 201.12751 169.069951 
L 139.019583 255.400359 
" clip-path="url(#p16fe2a0db4)" style="fill: none; stroke: #008000"/>
    <path d="M 201.12751 169.069951 
L 332.700596 158.526521 
" clip-path="url(#p16fe2a0db4)" style="fill: none; stroke: #008000"/>
    <path d="M 201.12751 169.069951 
L 319.186324 200.992663 
" clip-path="url(#p16fe2a0db4)" style="fill: none; stroke: #008000"/>
    <path d="M 319.186324 200.992663 
L 332.700596 158.526521 
" clip-path="url(#p16fe2a0db4)" style="fill: none; stroke: #008000"/>
   </g>
   <g id="LineCollection_11">
    <path d="M 137.344008 167.969222 
L 48.83239 90.393639 
" clip-path="url(#p16fe2a0db4)" style="fill: none; stroke: #808080"/>
    <path d="M 137.344008 167.969222 
L 219.889212 193.359822 
" clip-path="url(#p16fe2a0db4)" style="fill: none; stroke: #808080"/>
    <path d="M 137.344008 167.969222 
L 276.807258 169.857064 
" clip-path="url(#p16fe2a0db4)" style="fill: none; stroke: #808080"/>
    <path d="M 137.344008 167.969222 
L 215.299734 260.674427 
" clip-path="url(#p16fe2a0db4)" style="fill: none; stroke: #808080"/>
    <path d="M 137.344008 167.969222 
L 163.374422 109.162643 
" clip-path="url(#p16fe2a0db4)" style="fill: none; stroke: #808080"/>
    <path d="M 272.644953 273.942274 
L 219.889212 193.359822 
" clip-path="url(#p16fe2a0db4)" style="fill: none; stroke: #808080"/>
    <path d="M 272.644953 273.942274 
L 215.299734 260.674427 
" clip-path="url(#p16fe2a0db4)" style="fill: none; stroke: #808080"/>
    <path d="M 272.644953 273.942274 
L 276.807258 169.857064 
" clip-path="url(#p16fe2a0db4)" style="fill: none; stroke: #808080"/>
    <path d="M 272.644953 273.942274 
L 297.001109 339.683622 
" clip-path="url(#p16fe2a0db4)" style="fill: none; stroke: #808080"/>
    <path d="M 401.844102 90.630168 
L 276.807258 169.857064 
" clip-path="url(#p16fe2a0db4)" style="fill: none; stroke: #808080"/>
    <path d="M 219.889212 193.359822 
L 163.374422 109.162643 
" clip-path="url(#p16fe2a0db4)" style="fill: none; stroke: #808080"/>
    <path d="M 219.889212 193.359822 
L 325.099913 248.583011 
" clip-path="url(#p16fe2a0db4)" style="fill: none; stroke: #808080"/>
    <path d="M 219.889212 193.359822 
L 276.807258 169.857064 
" clip-path="url(#p16fe2a0db4)" style="fill: none; stroke: #808080"/>
    <path d="M 48.83239 90.393639 
L 163.374422 109.162643 
" clip-path="url(#p16fe2a0db4)" style="fill: none; stroke: #808080"/>
    <path d="M 297.001109 339.683622 
L 215.299734 260.674427 
" clip-path="url(#p16fe2a0db4)" style="fill: none; stroke: #808080"/>
    <path d="M 297.001109 339.683622 
L 325.099913 248.583011 
" clip-path="url(#p16fe2a0db4)" style="fill: none; stroke: #808080"/>
    <path d="M 276.807258 169.857064 
L 163.374422 109.162643 
" clip-path="url(#p16fe2a0db4)" style="fill: none; stroke: #808080"/>
    <path d="M 276.807258 169.857064 
L 325.099913 248.583011 
" clip-path="url(#p16fe2a0db4)" style="fill: none; stroke: #808080"/>
    <path d="M 276.807258 169.857064 
L 215.299734 260.674427 
" clip-path="url(#p16fe2a0db4)" style="fill: none; stroke: #808080"/>
    <path d="M 215.299734 260.674427 
L 325.099913 248.583011 
" clip-path="url(#p16fe2a0db4)" style="fill: none; stroke: #808080"/>
   </g>
   <g id="LineCollection_12">
    <path d="M 137.344008 167.969222 
L 48.83239 90.393639 
" clip-path="url(#p16fe2a0db4)" style="fill: none; stroke: #ff0000"/>
    <path d="M 137.344008 167.969222 
L 219.889212 193.359822 
" clip-path="url(#p16fe2a0db4)" style="fill: none; stroke: #ff0000"/>
    <path d="M 137.344008 167.969222 
L 276.807258 169.857064 
" clip-path="url(#p16fe2a0db4)" style="fill: none; stroke: #ff0000"/>
    <path d="M 137.344008 167.969222 
L 215.299734 260.674427 
" clip-path="url(#p16fe2a0db4)" style="fill: none; stroke: #ff0000"/>
    <path d="M 137.344008 167.969222 
L 163.374422 109.162643 
" clip-path="url(#p16fe2a0db4)" style="fill: none; stroke: #ff0000"/>
    <path d="M 272.644953 273.942274 
L 219.889212 193.359822 
" clip-path="url(#p16fe2a0db4)" style="fill: none; stroke: #ff0000"/>
    <path d="M 272.644953 273.942274 
L 215.299734 260.674427 
" clip-path="url(#p16fe2a0db4)" style="fill: none; stroke: #ff0000"/>
    <path d="M 272.644953 273.942274 
L 276.807258 169.857064 
" clip-path="url(#p16fe2a0db4)" style="fill: none; stroke: #ff0000"/>
    <path d="M 272.644953 273.942274 
L 297.001109 339.683622 
" clip-path="url(#p16fe2a0db4)" style="fill: none; stroke: #ff0000"/>
    <path d="M 401.844102 90.630168 
L 276.807258 169.857064 
" clip-path="url(#p16fe2a0db4)" style="fill: none; stroke: #ff0000"/>
    <path d="M 219.889212 193.359822 
L 163.374422 109.162643 
" clip-path="url(#p16fe2a0db4)" style="fill: none; stroke: #ff0000"/>
    <path d="M 219.889212 193.359822 
L 325.099913 248.583011 
" clip-path="url(#p16fe2a0db4)" style="fill: none; stroke: #ff0000"/>
    <path d="M 219.889212 193.359822 
L 276.807258 169.857064 
" clip-path="url(#p16fe2a0db4)" style="fill: none; stroke: #ff0000"/>
    <path d="M 48.83239 90.393639 
L 163.374422 109.162643 
" clip-path="url(#p16fe2a0db4)" style="fill: none; stroke: #ff0000"/>
    <path d="M 297.001109 339.683622 
L 215.299734 260.674427 
" clip-path="url(#p16fe2a0db4)" style="fill: none; stroke: #ff0000"/>
    <path d="M 297.001109 339.683622 
L 325.099913 248.583011 
" clip-path="url(#p16fe2a0db4)" style="fill: none; stroke: #ff0000"/>
    <path d="M 276.807258 169.857064 
L 163.374422 109.162643 
" clip-path="url(#p16fe2a0db4)" style="fill: none; stroke: #ff0000"/>
    <path d="M 276.807258 169.857064 
L 325.099913 248.583011 
" clip-path="url(#p16fe2a0db4)" style="fill: none; stroke: #ff0000"/>
    <path d="M 276.807258 169.857064 
L 215.299734 260.674427 
" clip-path="url(#p16fe2a0db4)" style="fill: none; stroke: #ff0000"/>
    <path d="M 215.299734 260.674427 
L 325.099913 248.583011 
" clip-path="url(#p16fe2a0db4)" style="fill: none; stroke: #ff0000"/>
   </g>
   <g id="LineCollection_13">
    <path d="M 137.344008 167.969222 
L 48.83239 90.393639 
" clip-path="url(#p16fe2a0db4)" style="fill: none; stroke: #008000"/>
    <path d="M 137.344008 167.969222 
L 219.889212 193.359822 
" clip-path="url(#p16fe2a0db4)" style="fill: none; stroke: #008000"/>
    <path d="M 137.344008 167.969222 
L 276.807258 169.857064 
" clip-path="url(#p16fe2a0db4)" style="fill: none; stroke: #008000"/>
    <path d="M 137.344008 167.969222 
L 215.299734 260.674427 
" clip-path="url(#p16fe2a0db4)" style="fill: none; stroke: #008000"/>
    <path d="M 137.344008 167.969222 
L 163.374422 109.162643 
" clip-path="url(#p16fe2a0db4)" style="fill: none; stroke: #008000"/>
    <path d="M 272.644953 273.942274 
L 219.889212 193.359822 
" clip-path="url(#p16fe2a0db4)" style="fill: none; stroke: #008000"/>
    <path d="M 272.644953 273.942274 
L 215.299734 260.674427 
" clip-path="url(#p16fe2a0db4)" style="fill: none; stroke: #008000"/>
    <path d="M 272.644953 273.942274 
L 276.807258 169.857064 
" clip-path="url(#p16fe2a0db4)" style="fill: none; stroke: #008000"/>
    <path d="M 272.644953 273.942274 
L 297.001109 339.683622 
" clip-path="url(#p16fe2a0db4)" style="fill: none; stroke: #008000"/>
    <path d="M 401.844102 90.630168 
L 276.807258 169.857064 
" clip-path="url(#p16fe2a0db4)" style="fill: none; stroke: #008000"/>
    <path d="M 219.889212 193.359822 
L 163.374422 109.162643 
" clip-path="url(#p16fe2a0db4)" style="fill: none; stroke: #008000"/>
    <path d="M 219.889212 193.359822 
L 325.099913 248.583011 
" clip-path="url(#p16fe2a0db4)" style="fill: none; stroke: #008000"/>
    <path d="M 219.889212 193.359822 
L 276.807258 169.857064 
" clip-path="url(#p16fe2a0db4)" style="fill: none; stroke: #008000"/>
    <path d="M 48.83239 90.393639 
L 163.374422 109.162643 
" clip-path="url(#p16fe2a0db4)" style="fill: none; stroke: #008000"/>
    <path d="M 297.001109 339.683622 
L 215.299734 260.674427 
" clip-path="url(#p16fe2a0db4)" style="fill: none; stroke: #008000"/>
    <path d="M 297.001109 339.683622 
L 325.099913 248.583011 
" clip-path="url(#p16fe2a0db4)" style="fill: none; stroke: #008000"/>
    <path d="M 276.807258 169.857064 
L 163.374422 109.162643 
" clip-path="url(#p16fe2a0db4)" style="fill: none; stroke: #008000"/>
    <path d="M 276.807258 169.857064 
L 325.099913 248.583011 
" clip-path="url(#p16fe2a0db4)" style="fill: none; stroke: #008000"/>
    <path d="M 276.807258 169.857064 
L 215.299734 260.674427 
" clip-path="url(#p16fe2a0db4)" style="fill: none; stroke: #008000"/>
    <path d="M 215.299734 260.674427 
L 325.099913 248.583011 
" clip-path="url(#p16fe2a0db4)" style="fill: none; stroke: #008000"/>
   </g>
   <g id="LineCollection_14">
    <path d="M 159.647305 157.866641 
L 52.483146 79.397604 
" clip-path="url(#p16fe2a0db4)" style="fill: none; stroke: #808080"/>
    <path d="M 159.647305 157.866641 
L 257.359019 157.450395 
" clip-path="url(#p16fe2a0db4)" style="fill: none; stroke: #808080"/>
    <path d="M 159.647305 157.866641 
L 212.460352 219.599619 
" clip-path="url(#p16fe2a0db4)" style="fill: none; stroke: #808080"/>
    <path d="M 159.647305 157.866641 
L 303.780079 214.171604 
" clip-path="url(#p16fe2a0db4)" style="fill: none; stroke: #808080"/>
    <path d="M 159.647305 157.866641 
L 151.665057 110.304961 
" clip-path="url(#p16fe2a0db4)" style="fill: none; stroke: #808080"/>
    <path d="M 322.084265 262.714122 
L 257.359019 157.450395 
" clip-path="url(#p16fe2a0db4)" style="fill: none; stroke: #808080"/>
    <path d="M 322.084265 262.714122 
L 303.780079 214.171604 
" clip-path="url(#p16fe2a0db4)" style="fill: none; stroke: #808080"/>
    <path d="M 322.084265 262.714122 
L 212.460352 219.599619 
" clip-path="url(#p16fe2a0db4)" style="fill: none; stroke: #808080"/>
    <path d="M 322.084265 262.714122 
L 428.265431 244.066183 
" clip-path="url(#p16fe2a0db4)" style="fill: none; stroke: #808080"/>
    <path d="M 107.865248 320.570782 
L 212.460352 219.599619 
" clip-path="url(#p16fe2a0db4)" style="fill: none; stroke: #808080"/>
    <path d="M 257.359019 157.450395 
L 151.665057 110.304961 
" clip-path="url(#p16fe2a0db4)" style="fill: none; stroke: #808080"/>
    <path d="M 257.359019 157.450395 
L 362.527197 178.113983 
" clip-path="url(#p16fe2a0db4)" style="fill: none; stroke: #808080"/>
    <path d="M 257.359019 157.450395 
L 212.460352 219.599619 
" clip-path="url(#p16fe2a0db4)" style="fill: none; stroke: #808080"/>
    <path d="M 52.483146 79.397604 
L 151.665057 110.304961 
" clip-path="url(#p16fe2a0db4)" style="fill: none; stroke: #808080"/>
    <path d="M 428.265431 244.066183 
L 303.780079 214.171604 
" clip-path="url(#p16fe2a0db4)" style="fill: none; stroke: #808080"/>
    <path d="M 428.265431 244.066183 
L 362.527197 178.113983 
" clip-path="url(#p16fe2a0db4)" style="fill: none; stroke: #808080"/>
    <path d="M 212.460352 219.599619 
L 151.665057 110.304961 
" clip-path="url(#p16fe2a0db4)" style="fill: none; stroke: #808080"/>
    <path d="M 212.460352 219.599619 
L 362.527197 178.113983 
" clip-path="url(#p16fe2a0db4)" style="fill: none; stroke: #808080"/>
    <path d="M 212.460352 219.599619 
L 303.780079 214.171604 
" clip-path="url(#p16fe2a0db4)" style="fill: none; stroke: #808080"/>
    <path d="M 303.780079 214.171604 
L 362.527197 178.113983 
" clip-path="url(#p16fe2a0db4)" style="fill: none; stroke: #808080"/>
   </g>
   <g id="LineCollection_15">
    <path d="M 159.647305 157.866641 
L 52.483146 79.397604 
" clip-path="url(#p16fe2a0db4)" style="fill: none; stroke: #ff0000"/>
    <path d="M 159.647305 157.866641 
L 257.359019 157.450395 
" clip-path="url(#p16fe2a0db4)" style="fill: none; stroke: #ff0000"/>
    <path d="M 159.647305 157.866641 
L 212.460352 219.599619 
" clip-path="url(#p16fe2a0db4)" style="fill: none; stroke: #ff0000"/>
    <path d="M 159.647305 157.866641 
L 303.780079 214.171604 
" clip-path="url(#p16fe2a0db4)" style="fill: none; stroke: #ff0000"/>
    <path d="M 159.647305 157.866641 
L 151.665057 110.304961 
" clip-path="url(#p16fe2a0db4)" style="fill: none; stroke: #ff0000"/>
    <path d="M 322.084265 262.714122 
L 257.359019 157.450395 
" clip-path="url(#p16fe2a0db4)" style="fill: none; stroke: #ff0000"/>
    <path d="M 322.084265 262.714122 
L 303.780079 214.171604 
" clip-path="url(#p16fe2a0db4)" style="fill: none; stroke: #ff0000"/>
    <path d="M 322.084265 262.714122 
L 212.460352 219.599619 
" clip-path="url(#p16fe2a0db4)" style="fill: none; stroke: #ff0000"/>
    <path d="M 322.084265 262.714122 
L 428.265431 244.066183 
" clip-path="url(#p16fe2a0db4)" style="fill: none; stroke: #ff0000"/>
    <path d="M 107.865248 320.570782 
L 212.460352 219.599619 
" clip-path="url(#p16fe2a0db4)" style="fill: none; stroke: #ff0000"/>
    <path d="M 257.359019 157.450395 
L 151.665057 110.304961 
" clip-path="url(#p16fe2a0db4)" style="fill: none; stroke: #ff0000"/>
    <path d="M 257.359019 157.450395 
L 362.527197 178.113983 
" clip-path="url(#p16fe2a0db4)" style="fill: none; stroke: #ff0000"/>
    <path d="M 257.359019 157.450395 
L 212.460352 219.599619 
" clip-path="url(#p16fe2a0db4)" style="fill: none; stroke: #ff0000"/>
    <path d="M 52.483146 79.397604 
L 151.665057 110.304961 
" clip-path="url(#p16fe2a0db4)" style="fill: none; stroke: #ff0000"/>
    <path d="M 428.265431 244.066183 
L 303.780079 214.171604 
" clip-path="url(#p16fe2a0db4)" style="fill: none; stroke: #ff0000"/>
    <path d="M 428.265431 244.066183 
L 362.527197 178.113983 
" clip-path="url(#p16fe2a0db4)" style="fill: none; stroke: #ff0000"/>
    <path d="M 212.460352 219.599619 
L 151.665057 110.304961 
" clip-path="url(#p16fe2a0db4)" style="fill: none; stroke: #ff0000"/>
    <path d="M 212.460352 219.599619 
L 362.527197 178.113983 
" clip-path="url(#p16fe2a0db4)" style="fill: none; stroke: #ff0000"/>
    <path d="M 212.460352 219.599619 
L 303.780079 214.171604 
" clip-path="url(#p16fe2a0db4)" style="fill: none; stroke: #ff0000"/>
    <path d="M 303.780079 214.171604 
L 362.527197 178.113983 
" clip-path="url(#p16fe2a0db4)" style="fill: none; stroke: #ff0000"/>
   </g>
   <g id="LineCollection_16">
    <path d="M 159.647305 157.866641 
L 52.483146 79.397604 
" clip-path="url(#p16fe2a0db4)" style="fill: none; stroke: #008000"/>
    <path d="M 159.647305 157.866641 
L 257.359019 157.450395 
" clip-path="url(#p16fe2a0db4)" style="fill: none; stroke: #008000"/>
    <path d="M 159.647305 157.866641 
L 212.460352 219.599619 
" clip-path="url(#p16fe2a0db4)" style="fill: none; stroke: #008000"/>
    <path d="M 159.647305 157.866641 
L 303.780079 214.171604 
" clip-path="url(#p16fe2a0db4)" style="fill: none; stroke: #008000"/>
    <path d="M 159.647305 157.866641 
L 151.665057 110.304961 
" clip-path="url(#p16fe2a0db4)" style="fill: none; stroke: #008000"/>
    <path d="M 322.084265 262.714122 
L 257.359019 157.450395 
" clip-path="url(#p16fe2a0db4)" style="fill: none; stroke: #008000"/>
    <path d="M 322.084265 262.714122 
L 303.780079 214.171604 
" clip-path="url(#p16fe2a0db4)" style="fill: none; stroke: #008000"/>
    <path d="M 322.084265 262.714122 
L 212.460352 219.599619 
" clip-path="url(#p16fe2a0db4)" style="fill: none; stroke: #008000"/>
    <path d="M 322.084265 262.714122 
L 428.265431 244.066183 
" clip-path="url(#p16fe2a0db4)" style="fill: none; stroke: #008000"/>
    <path d="M 107.865248 320.570782 
L 212.460352 219.599619 
" clip-path="url(#p16fe2a0db4)" style="fill: none; stroke: #008000"/>
    <path d="M 257.359019 157.450395 
L 151.665057 110.304961 
" clip-path="url(#p16fe2a0db4)" style="fill: none; stroke: #008000"/>
    <path d="M 257.359019 157.450395 
L 362.527197 178.113983 
" clip-path="url(#p16fe2a0db4)" style="fill: none; stroke: #008000"/>
    <path d="M 257.359019 157.450395 
L 212.460352 219.599619 
" clip-path="url(#p16fe2a0db4)" style="fill: none; stroke: #008000"/>
    <path d="M 52.483146 79.397604 
L 151.665057 110.304961 
" clip-path="url(#p16fe2a0db4)" style="fill: none; stroke: #008000"/>
    <path d="M 428.265431 244.066183 
L 303.780079 214.171604 
" clip-path="url(#p16fe2a0db4)" style="fill: none; stroke: #008000"/>
    <path d="M 428.265431 244.066183 
L 362.527197 178.113983 
" clip-path="url(#p16fe2a0db4)" style="fill: none; stroke: #008000"/>
    <path d="M 212.460352 219.599619 
L 151.665057 110.304961 
" clip-path="url(#p16fe2a0db4)" style="fill: none; stroke: #008000"/>
    <path d="M 212.460352 219.599619 
L 362.527197 178.113983 
" clip-path="url(#p16fe2a0db4)" style="fill: none; stroke: #008000"/>
    <path d="M 212.460352 219.599619 
L 303.780079 214.171604 
" clip-path="url(#p16fe2a0db4)" style="fill: none; stroke: #008000"/>
    <path d="M 303.780079 214.171604 
L 362.527197 178.113983 
" clip-path="url(#p16fe2a0db4)" style="fill: none; stroke: #008000"/>
   </g>
   <g id="PathCollection_1">
    <defs>
     <path id="medb0371b62" d="M 0 8.660254 
C 2.296726 8.660254 4.499694 7.747755 6.123724 6.123724 
C 7.747755 4.499694 8.660254 2.296726 8.660254 0 
C 8.660254 -2.296726 7.747755 -4.499694 6.123724 -6.123724 
C 4.499694 -7.747755 2.296726 -8.660254 0 -8.660254 
C -2.296726 -8.660254 -4.499694 -7.747755 -6.123724 -6.123724 
C -7.747755 -4.499694 -8.660254 -2.296726 -8.660254 0 
C -8.660254 2.296726 -7.747755 4.499694 -6.123724 6.123724 
C -4.499694 7.747755 -2.296726 8.660254 0 8.660254 
z
" style="stroke: #1f78b4"/>
    </defs>
    <g clip-path="url(#p16fe2a0db4)">
     <use xlink:href="#medb0371b62" x="140.055315" y="182.648314" style="fill: #1f78b4; stroke: #1f78b4"/>
     <use xlink:href="#medb0371b62" x="337.122323" y="197.619575" style="fill: #1f78b4; stroke: #1f78b4"/>
     <use xlink:href="#medb0371b62" x="347.692675" y="318.759124" style="fill: #1f78b4; stroke: #1f78b4"/>
     <use xlink:href="#medb0371b62" x="232.693405" y="159.744363" style="fill: #1f78b4; stroke: #1f78b4"/>
     <use xlink:href="#medb0371b62" x="43.361989" y="126.133435" style="fill: #1f78b4; stroke: #1f78b4"/>
     <use xlink:href="#medb0371b62" x="341.867719" y="160.094982" style="fill: #1f78b4; stroke: #1f78b4"/>
     <use xlink:href="#medb0371b62" x="253.67572" y="221.291633" style="fill: #1f78b4; stroke: #1f78b4"/>
     <use xlink:href="#medb0371b62" x="244.863535" y="192.786032" style="fill: #1f78b4; stroke: #1f78b4"/>
     <use xlink:href="#medb0371b62" x="269.827664" y="248.863373" style="fill: #1f78b4; stroke: #1f78b4"/>
     <use xlink:href="#medb0371b62" x="146.976756" y="136.315061" style="fill: #1f78b4; stroke: #1f78b4"/>
    </g>
   </g>
   <g id="PathCollection_2">
    <defs>
     <path id="mc0af95e2ab" d="M 0 8.660254 
C 2.296726 8.660254 4.499694 7.747755 6.123724 6.123724 
C 7.747755 4.499694 8.660254 2.296726 8.660254 0 
C 8.660254 -2.296726 7.747755 -4.499694 6.123724 -6.123724 
C 4.499694 -7.747755 2.296726 -8.660254 0 -8.660254 
C -2.296726 -8.660254 -4.499694 -7.747755 -6.123724 -6.123724 
C -7.747755 -4.499694 -8.660254 -2.296726 -8.660254 0 
C -8.660254 2.296726 -7.747755 4.499694 -6.123724 6.123724 
C -4.499694 7.747755 -2.296726 8.660254 0 8.660254 
z
" style="stroke: #0000ff"/>
    </defs>
    <g clip-path="url(#p16fe2a0db4)">
     <use xlink:href="#mc0af95e2ab" x="303.448291" y="232.986043" style="fill: #0000ff; stroke: #0000ff"/>
     <use xlink:href="#mc0af95e2ab" x="129.649272" y="160.86004" style="fill: #0000ff; stroke: #0000ff"/>
     <use xlink:href="#mc0af95e2ab" x="133.655034" y="319.213145" style="fill: #0000ff; stroke: #0000ff"/>
     <use xlink:href="#mc0af95e2ab" x="269.92564" y="167.813035" style="fill: #0000ff; stroke: #0000ff"/>
     <use xlink:href="#mc0af95e2ab" x="428.265431" y="274.396496" style="fill: #0000ff; stroke: #0000ff"/>
     <use xlink:href="#mc0af95e2ab" x="114.971345" y="85.696484" style="fill: #0000ff; stroke: #0000ff"/>
     <use xlink:href="#mc0af95e2ab" x="214.360034" y="217.949896" style="fill: #0000ff; stroke: #0000ff"/>
     <use xlink:href="#mc0af95e2ab" x="190.890947" y="157.852565" style="fill: #0000ff; stroke: #0000ff"/>
     <use xlink:href="#mc0af95e2ab" x="212.265154" y="107.77569" style="fill: #0000ff; stroke: #0000ff"/>
     <use xlink:href="#mc0af95e2ab" x="360.705952" y="219.712499" style="fill: #0000ff; stroke: #0000ff"/>
    </g>
   </g>
   <g id="PathCollection_3">
    <g clip-path="url(#p16fe2a0db4)">
     <use xlink:href="#mc0af95e2ab" x="239.931057" y="125.368242" style="fill: #0000ff; stroke: #0000ff"/>
     <use xlink:href="#mc0af95e2ab" x="199.627842" y="264.635691" style="fill: #0000ff; stroke: #0000ff"/>
     <use xlink:href="#mc0af95e2ab" x="393.417943" y="271.690018" style="fill: #0000ff; stroke: #0000ff"/>
     <use xlink:href="#mc0af95e2ab" x="231.91665" y="183.592532" style="fill: #0000ff; stroke: #0000ff"/>
     <use xlink:href="#mc0af95e2ab" x="303.620919" y="49.167556" style="fill: #0000ff; stroke: #0000ff"/>
     <use xlink:href="#mc0af95e2ab" x="92.80071" y="271.974366" style="fill: #0000ff; stroke: #0000ff"/>
     <use xlink:href="#mc0af95e2ab" x="272.462628" y="213.557063" style="fill: #0000ff; stroke: #0000ff"/>
     <use xlink:href="#mc0af95e2ab" x="158.316662" y="198.500744" style="fill: #0000ff; stroke: #0000ff"/>
     <use xlink:href="#mc0af95e2ab" x="155.042608" y="238.433138" style="fill: #0000ff; stroke: #0000ff"/>
     <use xlink:href="#mc0af95e2ab" x="311.00008" y="127.336542" style="fill: #0000ff; stroke: #0000ff"/>
    </g>
   </g>
   <g id="PathCollection_4">
    <g clip-path="url(#p16fe2a0db4)">
     <use xlink:href="#mc0af95e2ab" x="214.724666" y="266.65259" style="fill: #0000ff; stroke: #0000ff"/>
     <use xlink:href="#mc0af95e2ab" x="290.704817" y="125.943248" style="fill: #0000ff; stroke: #0000ff"/>
     <use xlink:href="#mc0af95e2ab" x="89.025186" y="89.175385" style="fill: #0000ff; stroke: #0000ff"/>
     <use xlink:href="#mc0af95e2ab" x="237.173199" y="207.037277" style="fill: #0000ff; stroke: #0000ff"/>
     <use xlink:href="#mc0af95e2ab" x="128.565878" y="339.683622" style="fill: #0000ff; stroke: #0000ff"/>
     <use xlink:href="#mc0af95e2ab" x="405.909341" y="131.774277" style="fill: #0000ff; stroke: #0000ff"/>
     <use xlink:href="#mc0af95e2ab" x="201.12751" y="169.069951" style="fill: #0000ff; stroke: #0000ff"/>
     <use xlink:href="#mc0af95e2ab" x="319.186324" y="200.992663" style="fill: #0000ff; stroke: #0000ff"/>
     <use xlink:href="#mc0af95e2ab" x="332.700596" y="158.526521" style="fill: #0000ff; stroke: #0000ff"/>
     <use xlink:href="#mc0af95e2ab" x="139.019583" y="255.400359" style="fill: #0000ff; stroke: #0000ff"/>
    </g>
   </g>
   <g id="PathCollection_5">
    <g clip-path="url(#p16fe2a0db4)">
     <use xlink:href="#mc0af95e2ab" x="137.344008" y="167.969222" style="fill: #0000ff; stroke: #0000ff"/>
     <use xlink:href="#mc0af95e2ab" x="272.644953" y="273.942274" style="fill: #0000ff; stroke: #0000ff"/>
     <use xlink:href="#mc0af95e2ab" x="401.844102" y="90.630168" style="fill: #0000ff; stroke: #0000ff"/>
     <use xlink:href="#mc0af95e2ab" x="219.889212" y="193.359822" style="fill: #0000ff; stroke: #0000ff"/>
     <use xlink:href="#mc0af95e2ab" x="48.83239" y="90.393639" style="fill: #0000ff; stroke: #0000ff"/>
     <use xlink:href="#mc0af95e2ab" x="297.001109" y="339.683622" style="fill: #0000ff; stroke: #0000ff"/>
     <use xlink:href="#mc0af95e2ab" x="276.807258" y="169.857064" style="fill: #0000ff; stroke: #0000ff"/>
     <use xlink:href="#mc0af95e2ab" x="215.299734" y="260.674427" style="fill: #0000ff; stroke: #0000ff"/>
     <use xlink:href="#mc0af95e2ab" x="325.099913" y="248.583011" style="fill: #0000ff; stroke: #0000ff"/>
     <use xlink:href="#mc0af95e2ab" x="163.374422" y="109.162643" style="fill: #0000ff; stroke: #0000ff"/>
    </g>
   </g>
   <g id="PathCollection_6">
    <g clip-path="url(#p16fe2a0db4)">
     <use xlink:href="#mc0af95e2ab" x="159.647305" y="157.866641" style="fill: #0000ff; stroke: #0000ff"/>
     <use xlink:href="#mc0af95e2ab" x="322.084265" y="262.714122" style="fill: #0000ff; stroke: #0000ff"/>
     <use xlink:href="#mc0af95e2ab" x="107.865248" y="320.570782" style="fill: #0000ff; stroke: #0000ff"/>
     <use xlink:href="#mc0af95e2ab" x="257.359019" y="157.450395" style="fill: #0000ff; stroke: #0000ff"/>
     <use xlink:href="#mc0af95e2ab" x="52.483146" y="79.397604" style="fill: #0000ff; stroke: #0000ff"/>
     <use xlink:href="#mc0af95e2ab" x="428.265431" y="244.066183" style="fill: #0000ff; stroke: #0000ff"/>
     <use xlink:href="#mc0af95e2ab" x="212.460352" y="219.599619" style="fill: #0000ff; stroke: #0000ff"/>
     <use xlink:href="#mc0af95e2ab" x="303.780079" y="214.171604" style="fill: #0000ff; stroke: #0000ff"/>
     <use xlink:href="#mc0af95e2ab" x="362.527197" y="178.113983" style="fill: #0000ff; stroke: #0000ff"/>
     <use xlink:href="#mc0af95e2ab" x="151.665057" y="110.304961" style="fill: #0000ff; stroke: #0000ff"/>
    </g>
   </g>
   <g id="text_1">
    <g clip-path="url(#p16fe2a0db4)">
     <!-- 0 -->
     <g transform="translate(136.237815 185.959564) scale(0.12 -0.12)">
      <defs>
       <path id="DejaVuSans-30" d="M 2034 4250 
Q 1547 4250 1301 3770 
Q 1056 3291 1056 2328 
Q 1056 1369 1301 889 
Q 1547 409 2034 409 
Q 2525 409 2770 889 
Q 3016 1369 3016 2328 
Q 3016 3291 2770 3770 
Q 2525 4250 2034 4250 
z
M 2034 4750 
Q 2819 4750 3233 4129 
Q 3647 3509 3647 2328 
Q 3647 1150 3233 529 
Q 2819 -91 2034 -91 
Q 1250 -91 836 529 
Q 422 1150 422 2328 
Q 422 3509 836 4129 
Q 1250 4750 2034 4750 
z
" transform="scale(0.015625)"/>
      </defs>
      <use xlink:href="#DejaVuSans-30"/>
     </g>
    </g>
   </g>
   <g id="text_2">
    <g clip-path="url(#p16fe2a0db4)">
     <!-- 1 -->
     <g transform="translate(333.304823 200.930825) scale(0.12 -0.12)">
      <defs>
       <path id="DejaVuSans-31" d="M 794 531 
L 1825 531 
L 1825 4091 
L 703 3866 
L 703 4441 
L 1819 4666 
L 2450 4666 
L 2450 531 
L 3481 531 
L 3481 0 
L 794 0 
L 794 531 
z
" transform="scale(0.015625)"/>
      </defs>
      <use xlink:href="#DejaVuSans-31"/>
     </g>
    </g>
   </g>
   <g id="text_3">
    <g clip-path="url(#p16fe2a0db4)">
     <!-- 2 -->
     <g transform="translate(343.875175 322.070374) scale(0.12 -0.12)">
      <defs>
       <path id="DejaVuSans-32" d="M 1228 531 
L 3431 531 
L 3431 0 
L 469 0 
L 469 531 
Q 828 903 1448 1529 
Q 2069 2156 2228 2338 
Q 2531 2678 2651 2914 
Q 2772 3150 2772 3378 
Q 2772 3750 2511 3984 
Q 2250 4219 1831 4219 
Q 1534 4219 1204 4116 
Q 875 4013 500 3803 
L 500 4441 
Q 881 4594 1212 4672 
Q 1544 4750 1819 4750 
Q 2544 4750 2975 4387 
Q 3406 4025 3406 3419 
Q 3406 3131 3298 2873 
Q 3191 2616 2906 2266 
Q 2828 2175 2409 1742 
Q 1991 1309 1228 531 
z
" transform="scale(0.015625)"/>
      </defs>
      <use xlink:href="#DejaVuSans-32"/>
     </g>
    </g>
   </g>
   <g id="text_4">
    <g clip-path="url(#p16fe2a0db4)">
     <!-- 3 -->
     <g transform="translate(228.875905 163.055613) scale(0.12 -0.12)">
      <defs>
       <path id="DejaVuSans-33" d="M 2597 2516 
Q 3050 2419 3304 2112 
Q 3559 1806 3559 1356 
Q 3559 666 3084 287 
Q 2609 -91 1734 -91 
Q 1441 -91 1130 -33 
Q 819 25 488 141 
L 488 750 
Q 750 597 1062 519 
Q 1375 441 1716 441 
Q 2309 441 2620 675 
Q 2931 909 2931 1356 
Q 2931 1769 2642 2001 
Q 2353 2234 1838 2234 
L 1294 2234 
L 1294 2753 
L 1863 2753 
Q 2328 2753 2575 2939 
Q 2822 3125 2822 3475 
Q 2822 3834 2567 4026 
Q 2313 4219 1838 4219 
Q 1578 4219 1281 4162 
Q 984 4106 628 3988 
L 628 4550 
Q 988 4650 1302 4700 
Q 1616 4750 1894 4750 
Q 2613 4750 3031 4423 
Q 3450 4097 3450 3541 
Q 3450 3153 3228 2886 
Q 3006 2619 2597 2516 
z
" transform="scale(0.015625)"/>
      </defs>
      <use xlink:href="#DejaVuSans-33"/>
     </g>
    </g>
   </g>
   <g id="text_5">
    <g clip-path="url(#p16fe2a0db4)">
     <!-- 4 -->
     <g transform="translate(39.544489 129.444685) scale(0.12 -0.12)">
      <defs>
       <path id="DejaVuSans-34" d="M 2419 4116 
L 825 1625 
L 2419 1625 
L 2419 4116 
z
M 2253 4666 
L 3047 4666 
L 3047 1625 
L 3713 1625 
L 3713 1100 
L 3047 1100 
L 3047 0 
L 2419 0 
L 2419 1100 
L 313 1100 
L 313 1709 
L 2253 4666 
z
" transform="scale(0.015625)"/>
      </defs>
      <use xlink:href="#DejaVuSans-34"/>
     </g>
    </g>
   </g>
   <g id="text_6">
    <g clip-path="url(#p16fe2a0db4)">
     <!-- 5 -->
     <g transform="translate(338.050219 163.406232) scale(0.12 -0.12)">
      <defs>
       <path id="DejaVuSans-35" d="M 691 4666 
L 3169 4666 
L 3169 4134 
L 1269 4134 
L 1269 2991 
Q 1406 3038 1543 3061 
Q 1681 3084 1819 3084 
Q 2600 3084 3056 2656 
Q 3513 2228 3513 1497 
Q 3513 744 3044 326 
Q 2575 -91 1722 -91 
Q 1428 -91 1123 -41 
Q 819 9 494 109 
L 494 744 
Q 775 591 1075 516 
Q 1375 441 1709 441 
Q 2250 441 2565 725 
Q 2881 1009 2881 1497 
Q 2881 1984 2565 2268 
Q 2250 2553 1709 2553 
Q 1456 2553 1204 2497 
Q 953 2441 691 2322 
L 691 4666 
z
" transform="scale(0.015625)"/>
      </defs>
      <use xlink:href="#DejaVuSans-35"/>
     </g>
    </g>
   </g>
   <g id="text_7">
    <g clip-path="url(#p16fe2a0db4)">
     <!-- 6 -->
     <g transform="translate(249.85822 224.602883) scale(0.12 -0.12)">
      <defs>
       <path id="DejaVuSans-36" d="M 2113 2584 
Q 1688 2584 1439 2293 
Q 1191 2003 1191 1497 
Q 1191 994 1439 701 
Q 1688 409 2113 409 
Q 2538 409 2786 701 
Q 3034 994 3034 1497 
Q 3034 2003 2786 2293 
Q 2538 2584 2113 2584 
z
M 3366 4563 
L 3366 3988 
Q 3128 4100 2886 4159 
Q 2644 4219 2406 4219 
Q 1781 4219 1451 3797 
Q 1122 3375 1075 2522 
Q 1259 2794 1537 2939 
Q 1816 3084 2150 3084 
Q 2853 3084 3261 2657 
Q 3669 2231 3669 1497 
Q 3669 778 3244 343 
Q 2819 -91 2113 -91 
Q 1303 -91 875 529 
Q 447 1150 447 2328 
Q 447 3434 972 4092 
Q 1497 4750 2381 4750 
Q 2619 4750 2861 4703 
Q 3103 4656 3366 4563 
z
" transform="scale(0.015625)"/>
      </defs>
      <use xlink:href="#DejaVuSans-36"/>
     </g>
    </g>
   </g>
   <g id="text_8">
    <g clip-path="url(#p16fe2a0db4)">
     <!-- 7 -->
     <g transform="translate(241.046035 196.097282) scale(0.12 -0.12)">
      <defs>
       <path id="DejaVuSans-37" d="M 525 4666 
L 3525 4666 
L 3525 4397 
L 1831 0 
L 1172 0 
L 2766 4134 
L 525 4134 
L 525 4666 
z
" transform="scale(0.015625)"/>
      </defs>
      <use xlink:href="#DejaVuSans-37"/>
     </g>
    </g>
   </g>
   <g id="text_9">
    <g clip-path="url(#p16fe2a0db4)">
     <!-- 8 -->
     <g transform="translate(266.010164 252.174623) scale(0.12 -0.12)">
      <defs>
       <path id="DejaVuSans-38" d="M 2034 2216 
Q 1584 2216 1326 1975 
Q 1069 1734 1069 1313 
Q 1069 891 1326 650 
Q 1584 409 2034 409 
Q 2484 409 2743 651 
Q 3003 894 3003 1313 
Q 3003 1734 2745 1975 
Q 2488 2216 2034 2216 
z
M 1403 2484 
Q 997 2584 770 2862 
Q 544 3141 544 3541 
Q 544 4100 942 4425 
Q 1341 4750 2034 4750 
Q 2731 4750 3128 4425 
Q 3525 4100 3525 3541 
Q 3525 3141 3298 2862 
Q 3072 2584 2669 2484 
Q 3125 2378 3379 2068 
Q 3634 1759 3634 1313 
Q 3634 634 3220 271 
Q 2806 -91 2034 -91 
Q 1263 -91 848 271 
Q 434 634 434 1313 
Q 434 1759 690 2068 
Q 947 2378 1403 2484 
z
M 1172 3481 
Q 1172 3119 1398 2916 
Q 1625 2713 2034 2713 
Q 2441 2713 2670 2916 
Q 2900 3119 2900 3481 
Q 2900 3844 2670 4047 
Q 2441 4250 2034 4250 
Q 1625 4250 1398 4047 
Q 1172 3844 1172 3481 
z
" transform="scale(0.015625)"/>
      </defs>
      <use xlink:href="#DejaVuSans-38"/>
     </g>
    </g>
   </g>
   <g id="text_10">
    <g clip-path="url(#p16fe2a0db4)">
     <!-- 9 -->
     <g transform="translate(143.159256 139.626311) scale(0.12 -0.12)">
      <defs>
       <path id="DejaVuSans-39" d="M 703 97 
L 703 672 
Q 941 559 1184 500 
Q 1428 441 1663 441 
Q 2288 441 2617 861 
Q 2947 1281 2994 2138 
Q 2813 1869 2534 1725 
Q 2256 1581 1919 1581 
Q 1219 1581 811 2004 
Q 403 2428 403 3163 
Q 403 3881 828 4315 
Q 1253 4750 1959 4750 
Q 2769 4750 3195 4129 
Q 3622 3509 3622 2328 
Q 3622 1225 3098 567 
Q 2575 -91 1691 -91 
Q 1453 -91 1209 -44 
Q 966 3 703 97 
z
M 1959 2075 
Q 2384 2075 2632 2365 
Q 2881 2656 2881 3163 
Q 2881 3666 2632 3958 
Q 2384 4250 1959 4250 
Q 1534 4250 1286 3958 
Q 1038 3666 1038 3163 
Q 1038 2656 1286 2365 
Q 1534 2075 1959 2075 
z
" transform="scale(0.015625)"/>
      </defs>
      <use xlink:href="#DejaVuSans-39"/>
     </g>
    </g>
   </g>
   <g id="text_11">
    <!-- Iteration 5 -->
    <g transform="translate(206.425312 16.318125) scale(0.12 -0.12)">
     <defs>
      <path id="DejaVuSans-49" d="M 628 4666 
L 1259 4666 
L 1259 0 
L 628 0 
L 628 4666 
z
" transform="scale(0.015625)"/>
      <path id="DejaVuSans-74" d="M 1172 4494 
L 1172 3500 
L 2356 3500 
L 2356 3053 
L 1172 3053 
L 1172 1153 
Q 1172 725 1289 603 
Q 1406 481 1766 481 
L 2356 481 
L 2356 0 
L 1766 0 
Q 1100 0 847 248 
Q 594 497 594 1153 
L 594 3053 
L 172 3053 
L 172 3500 
L 594 3500 
L 594 4494 
L 1172 4494 
z
" transform="scale(0.015625)"/>
      <path id="DejaVuSans-65" d="M 3597 1894 
L 3597 1613 
L 953 1613 
Q 991 1019 1311 708 
Q 1631 397 2203 397 
Q 2534 397 2845 478 
Q 3156 559 3463 722 
L 3463 178 
Q 3153 47 2828 -22 
Q 2503 -91 2169 -91 
Q 1331 -91 842 396 
Q 353 884 353 1716 
Q 353 2575 817 3079 
Q 1281 3584 2069 3584 
Q 2775 3584 3186 3129 
Q 3597 2675 3597 1894 
z
M 3022 2063 
Q 3016 2534 2758 2815 
Q 2500 3097 2075 3097 
Q 1594 3097 1305 2825 
Q 1016 2553 972 2059 
L 3022 2063 
z
" transform="scale(0.015625)"/>
      <path id="DejaVuSans-72" d="M 2631 2963 
Q 2534 3019 2420 3045 
Q 2306 3072 2169 3072 
Q 1681 3072 1420 2755 
Q 1159 2438 1159 1844 
L 1159 0 
L 581 0 
L 581 3500 
L 1159 3500 
L 1159 2956 
Q 1341 3275 1631 3429 
Q 1922 3584 2338 3584 
Q 2397 3584 2469 3576 
Q 2541 3569 2628 3553 
L 2631 2963 
z
" transform="scale(0.015625)"/>
      <path id="DejaVuSans-61" d="M 2194 1759 
Q 1497 1759 1228 1600 
Q 959 1441 959 1056 
Q 959 750 1161 570 
Q 1363 391 1709 391 
Q 2188 391 2477 730 
Q 2766 1069 2766 1631 
L 2766 1759 
L 2194 1759 
z
M 3341 1997 
L 3341 0 
L 2766 0 
L 2766 531 
Q 2569 213 2275 61 
Q 1981 -91 1556 -91 
Q 1019 -91 701 211 
Q 384 513 384 1019 
Q 384 1609 779 1909 
Q 1175 2209 1959 2209 
L 2766 2209 
L 2766 2266 
Q 2766 2663 2505 2880 
Q 2244 3097 1772 3097 
Q 1472 3097 1187 3025 
Q 903 2953 641 2809 
L 641 3341 
Q 956 3463 1253 3523 
Q 1550 3584 1831 3584 
Q 2591 3584 2966 3190 
Q 3341 2797 3341 1997 
z
" transform="scale(0.015625)"/>
      <path id="DejaVuSans-69" d="M 603 3500 
L 1178 3500 
L 1178 0 
L 603 0 
L 603 3500 
z
M 603 4863 
L 1178 4863 
L 1178 4134 
L 603 4134 
L 603 4863 
z
" transform="scale(0.015625)"/>
      <path id="DejaVuSans-6f" d="M 1959 3097 
Q 1497 3097 1228 2736 
Q 959 2375 959 1747 
Q 959 1119 1226 758 
Q 1494 397 1959 397 
Q 2419 397 2687 759 
Q 2956 1122 2956 1747 
Q 2956 2369 2687 2733 
Q 2419 3097 1959 3097 
z
M 1959 3584 
Q 2709 3584 3137 3096 
Q 3566 2609 3566 1747 
Q 3566 888 3137 398 
Q 2709 -91 1959 -91 
Q 1206 -91 779 398 
Q 353 888 353 1747 
Q 353 2609 779 3096 
Q 1206 3584 1959 3584 
z
" transform="scale(0.015625)"/>
      <path id="DejaVuSans-6e" d="M 3513 2113 
L 3513 0 
L 2938 0 
L 2938 2094 
Q 2938 2591 2744 2837 
Q 2550 3084 2163 3084 
Q 1697 3084 1428 2787 
Q 1159 2491 1159 1978 
L 1159 0 
L 581 0 
L 581 3500 
L 1159 3500 
L 1159 2956 
Q 1366 3272 1645 3428 
Q 1925 3584 2291 3584 
Q 2894 3584 3203 3211 
Q 3513 2838 3513 2113 
z
" transform="scale(0.015625)"/>
      <path id="DejaVuSans-20" transform="scale(0.015625)"/>
     </defs>
     <use xlink:href="#DejaVuSans-49"/>
     <use xlink:href="#DejaVuSans-74" x="29.492188"/>
     <use xlink:href="#DejaVuSans-65" x="68.701172"/>
     <use xlink:href="#DejaVuSans-72" x="130.224609"/>
     <use xlink:href="#DejaVuSans-61" x="171.337891"/>
     <use xlink:href="#DejaVuSans-74" x="232.617188"/>
     <use xlink:href="#DejaVuSans-69" x="271.826172"/>
     <use xlink:href="#DejaVuSans-6f" x="299.609375"/>
     <use xlink:href="#DejaVuSans-6e" x="360.791016"/>
     <use xlink:href="#DejaVuSans-20" x="424.169922"/>
     <use xlink:href="#DejaVuSans-35" x="455.957031"/>
    </g>
   </g>
  </g>
 </g>
 <defs>
  <clipPath id="p16fe2a0db4">
   <rect x="7.2" y="22.318125" width="460.8" height="345.6"/>
  </clipPath>
 </defs>
</svg>
